{
	"asset":{
		"generator":"Khronos glTF Blender I/O v5.0.21",
		"version":"2.0"
	},
	"extensionsUsed":[
		"KHR_lights_punctual"
	],
	"extensionsRequired":[
		"KHR_lights_punctual"
	],
	"extensions":{
		"KHR_lights_punctual":{
			"lights":[
				{
					"color":[
						1,
						0.7498565316200256,
						0.08227191865444183
					],
					"intensity":0.543514118510335,
					"type":"point",
					"name":"Point.002"
				}
			]
		}
	},
	"scene":0,
	"scenes":[
		{
			"name":"Scene",
			"nodes":[
				0,
				1,
				2,
				3,
				4
			]
		}
	],
	"nodes":[
		{
			"mesh":0,
			"name":"Wall"
		},
		{
			"mesh":1,
			"name":"WallInner"
		},
		{
			"mesh":2,
			"name":"NavMeshFloor"
		},
		{
			"mesh":3,
			"name":"Faire"
		},
		{
			"extensions":{
				"KHR_lights_punctual":{
					"light":0
				}
			},
			"name":"Point",
			"rotation":[
				-0.7071068286895752,
				0,
				0,
				0.7071068286895752
			],
			"translation":[
				2.894810438156128,
				5.134479522705078,
				23.252920150756836
			]
		}
	],
	"materials":[
		{
			"doubleSided":true,
			"name":"Material.007",
			"pbrMetallicRoughness":{
				"baseColorTexture":{
					"index":0,
					"texCoord":1
				},
				"metallicFactor":0,
				"roughnessFactor":0.5
			}
		},
		{
			"doubleSided":true,
			"name":"Material.005",
			"pbrMetallicRoughness":{
				"baseColorTexture":{
					"index":1,
					"texCoord":1
				},
				"metallicFactor":0,
				"roughnessFactor":0.5
			}
		},
		{
			"doubleSided":true,
			"name":"Stone Floor 06 Material",
			"pbrMetallicRoughness":{
				"baseColorTexture":{
					"index":2,
					"texCoord":1
				},
				"metallicFactor":0,
				"metallicRoughnessTexture":{
					"index":3,
					"texCoord":1
				}
			}
		}
	],
	"meshes":[
		{
			"name":"Cube.001",
			"primitives":[
				{
					"attributes":{
						"POSITION":0,
						"NORMAL":1,
						"TEXCOORD_0":2,
						"TEXCOORD_1":3
					},
					"indices":4,
					"material":0
				}
			]
		},
		{
			"name":"Cube.009",
			"primitives":[
				{
					"attributes":{
						"POSITION":5,
						"NORMAL":6,
						"TEXCOORD_0":7,
						"TEXCOORD_1":8
					},
					"indices":9,
					"material":1
				}
			]
		},
		{
			"name":"Plane",
			"primitives":[
				{
					"attributes":{
						"POSITION":10,
						"NORMAL":11,
						"TEXCOORD_0":12,
						"TEXCOORD_1":13
					},
					"indices":14,
					"material":2
				}
			]
		},
		{
			"name":"Faire.002",
			"primitives":[
				{
					"attributes":{
						"POSITION":15,
						"NORMAL":16,
						"TEXCOORD_0":17
					},
					"indices":18
				}
			]
		}
	],
	"textures":[
		{
			"sampler":0,
			"source":0
		},
		{
			"sampler":0,
			"source":1
		},
		{
			"sampler":0,
			"source":2
		},
		{
			"sampler":0,
			"source":3
		}
	],
	"images":[
		{
			"mimeType":"image/jpeg",
			"name":"wall",
			"uri":"wall.jpg"
		},
		{
			"mimeType":"image/jpeg",
			"name":"brick",
			"uri":"brick.jpg"
		},
		{
			"mimeType":"image/jpeg",
			"name":"Stone_Floor_06_basecolor",
			"uri":"Stone_Floor_06_basecolor.jpg"
		},
		{
			"mimeType":"image/png",
			"name":"Stone_Floor_06_roughness",
			"uri":"Stone_Floor_06_roughness.png"
		}
	],
	"accessors":[
		{
			"bufferView":0,
			"componentType":5126,
			"count":96,
			"max":[
				25.16634750366211,
				12.008085250854492,
				25.726499557495117
			],
			"min":[
				-25.11190414428711,
				-0.0532853901386261,
				-25.778202056884766
			],
			"type":"VEC3"
		},
		{
			"bufferView":1,
			"componentType":5126,
			"count":96,
			"type":"VEC3"
		},
		{
			"bufferView":2,
			"componentType":5126,
			"count":96,
			"type":"VEC2"
		},
		{
			"bufferView":3,
			"componentType":5126,
			"count":96,
			"type":"VEC2"
		},
		{
			"bufferView":4,
			"componentType":5123,
			"count":144,
			"type":"SCALAR"
		},
		{
			"bufferView":5,
			"componentType":5126,
			"count":96,
			"max":[
				13.153565406799316,
				7.416445732116699,
				25.65183448791504
			],
			"min":[
				-16.81356430053711,
				-0.03725579380989075,
				-25.74183464050293
			],
			"type":"VEC3"
		},
		{
			"bufferView":6,
			"componentType":5126,
			"count":96,
			"type":"VEC3"
		},
		{
			"bufferView":7,
			"componentType":5126,
			"count":96,
			"type":"VEC2"
		},
		{
			"bufferView":8,
			"componentType":5126,
			"count":96,
			"type":"VEC2"
		},
		{
			"bufferView":9,
			"componentType":5123,
			"count":144,
			"type":"SCALAR"
		},
		{
			"bufferView":10,
			"componentType":5126,
			"count":1024,
			"max":[
				23.689058303833008,
				0.4564112424850464,
				24.290761947631836
			],
			"min":[
				-23.689058303833008,
				0.4564112424850464,
				-24.290761947631836
			],
			"type":"VEC3"
		},
		{
			"bufferView":11,
			"componentType":5126,
			"count":1024,
			"type":"VEC3"
		},
		{
			"bufferView":12,
			"componentType":5126,
			"count":1024,
			"type":"VEC2"
		},
		{
			"bufferView":13,
			"componentType":5126,
			"count":1024,
			"type":"VEC2"
		},
		{
			"bufferView":14,
			"componentType":5123,
			"count":5766,
			"type":"SCALAR"
		},
		{
			"bufferView":15,
			"componentType":5126,
			"count":72,
			"max":[
				4.200000286102295,
				4.848611354827881,
				23.867080688476562
			],
			"min":[
				2.1999998092651367,
				-5.000000476837158,
				-6.099996566772461
			],
			"type":"VEC3"
		},
		{
			"bufferView":16,
			"componentType":5126,
			"count":72,
			"type":"VEC3"
		},
		{
			"bufferView":17,
			"componentType":5126,
			"count":72,
			"type":"VEC2"
		},
		{
			"bufferView":18,
			"componentType":5123,
			"count":108,
			"type":"SCALAR"
		}
	],
	"bufferViews":[
		{
			"buffer":0,
			"byteLength":1152,
			"byteOffset":0,
			"target":34962
		},
		{
			"buffer":0,
			"byteLength":1152,
			"byteOffset":1152,
			"target":34962
		},
		{
			"buffer":0,
			"byteLength":768,
			"byteOffset":2304,
			"target":34962
		},
		{
			"buffer":0,
			"byteLength":768,
			"byteOffset":3072,
			"target":34962
		},
		{
			"buffer":0,
			"byteLength":288,
			"byteOffset":3840,
			"target":34963
		},
		{
			"buffer":0,
			"byteLength":1152,
			"byteOffset":4128,
			"target":34962
		},
		{
			"buffer":0,
			"byteLength":1152,
			"byteOffset":5280,
			"target":34962
		},
		{
			"buffer":0,
			"byteLength":768,
			"byteOffset":6432,
			"target":34962
		},
		{
			"buffer":0,
			"byteLength":768,
			"byteOffset":7200,
			"target":34962
		},
		{
			"buffer":0,
			"byteLength":288,
			"byteOffset":7968,
			"target":34963
		},
		{
			"buffer":0,
			"byteLength":12288,
			"byteOffset":8256,
			"target":34962
		},
		{
			"buffer":0,
			"byteLength":12288,
			"byteOffset":20544,
			"target":34962
		},
		{
			"buffer":0,
			"byteLength":8192,
			"byteOffset":32832,
			"target":34962
		},
		{
			"buffer":0,
			"byteLength":8192,
			"byteOffset":41024,
			"target":34962
		},
		{
			"buffer":0,
			"byteLength":11532,
			"byteOffset":49216,
			"target":34963
		},
		{
			"buffer":0,
			"byteLength":864,
			"byteOffset":60748,
			"target":34962
		},
		{
			"buffer":0,
			"byteLength":864,
			"byteOffset":61612,
			"target":34962
		},
		{
			"buffer":0,
			"byteLength":576,
			"byteOffset":62476,
			"target":34962
		},
		{
			"buffer":0,
			"byteLength":216,
			"byteOffset":63052,
			"target":34963
		}
	],
	"samplers":[
		{
			"magFilter":9729,
			"minFilter":9987
		}
	],
	"buffers":[
		{
			"byteLength":63268,
			"uri":"Map.bin"
		}
	]
}
